<?xml version="1.0" standalone="no"?>
<!DOCTYPE svg PUBLIC "-//W3C//DTD SVG 20010904//EN"
 "http://www.w3.org/TR/2001/REC-SVG-20010904/DTD/svg10.dtd">
<svg version="1.0" xmlns="http://www.w3.org/2000/svg"
 width="700.000000pt" height="700.000000pt" viewBox="0 0 700.000000 700.000000"
 preserveAspectRatio="xMidYMid meet">
<metadata>
Created by potrace 1.14, written by Peter Selinger 2001-2017
</metadata>
<g transform="translate(0.000000,700.000000) scale(0.100000,-0.100000)"
fill="#000000" stroke="none">
<path d="M3386 5643 c-1 -1 -28 -4 -61 -7 -428 -37 -813 -188 -1153 -454 -107
-83 -271 -247 -354 -354 -66 -83 -178 -250 -178 -263 0 -4 -8 -19 -18 -33 -65
-92 -184 -409 -216 -572 -39 -199 -49 -294 -47 -465 1 -178 10 -268 43 -430
94 -459 350 -892 704 -1190 118 -99 235 -185 253 -185 6 0 11 -4 11 -9 0 -14
315 -167 414 -201 96 -33 219 -67 276 -76 19 -3 38 -8 41 -10 4 -2 31 -6 60
-10 30 -3 57 -8 60 -10 8 -4 227 -18 284 -17 58 0 245 13 280 18 434 71 761
214 1078 472 144 117 305 295 414 458 52 76 153 250 153 261 0 2 11 27 24 56
60 133 103 259 136 405 36 155 50 289 51 468 1 160 -12 301 -38 420 -2 11 -6
31 -9 45 -3 14 -7 33 -10 42 -3 9 -7 25 -9 35 -9 43 -55 184 -80 248 -228 570
-679 1012 -1255 1228 -115 43 -271 84 -390 102 -19 3 -46 7 -60 10 -63 12
-395 27 -404 18z"/>
</g>
</svg>
